<svg width="50" height="50" viewBox="0 0 50 50" fill="none" xmlns="http://www.w3.org/2000/svg">
<path d="M24.7891 49.5781C38.4797 49.5781 49.5781 38.4797 49.5781 24.7891C49.5781 11.0984 38.4797 0 24.7891 0C11.0984 0 0 11.0984 0 24.7891C0 38.4797 11.0984 49.5781 24.7891 49.5781Z" fill="#FDA5A4" fill-opacity="0.4"/>
<path d="M27.9868 24.4938C27.9868 28.6625 30.2423 32.0375 33.0251 32.0375C35.8079 32.0375 38.0626 28.6625 38.0626 24.4938C38.0626 20.3273 35.8071 16.95 33.0251 16.95C30.2423 16.95 27.9868 20.3266 27.9868 24.4938Z" fill="white"/>
<path d="M29.7656 24.4938C29.7656 26.6773 31.2227 28.4469 33.025 28.4469C34.8266 28.4469 36.2836 26.6773 36.2836 24.4938C36.2836 22.3109 34.8266 20.5414 33.025 20.5414C31.2227 20.5414 29.7656 22.3109 29.7656 24.4938Z" fill="#25333A"/>
<path d="M26.6875 21.2891C28.1461 16.1008 34.7773 13.3578 39.7211 13.3024C41.1648 13.2859 41.4945 15.5391 40.0289 15.5539C35.8687 15.6016 30.0632 17.2992 28.8117 21.7523C28.4125 23.1641 26.2937 22.6852 26.6875 21.2891Z" fill="#384D48"/>
<path d="M21.2187 24.2344C21.2187 28.4031 18.9632 31.7781 16.1804 31.7781C13.3976 31.7781 11.1421 28.4031 11.1421 24.2344C11.1421 20.068 13.3968 16.6906 16.1804 16.6906C18.9632 16.6906 21.2187 20.068 21.2187 24.2344Z" fill="white"/>
<path d="M16.1766 28.1875C17.9767 28.1875 19.436 26.4176 19.436 24.2344C19.436 22.0511 17.9767 20.2812 16.1766 20.2812C14.3765 20.2812 12.9172 22.0511 12.9172 24.2344C12.9172 26.4176 14.3765 28.1875 16.1766 28.1875Z" fill="#25333A"/>
<path d="M22.5124 21.0289C21.053 15.8406 14.4217 13.0976 9.47878 13.0422C8.03503 13.0258 7.70612 15.2789 9.17097 15.2937C13.3319 15.3414 19.1366 17.0391 20.3889 21.4922C20.7874 22.9047 22.9061 22.4258 22.5124 21.0289Z" fill="#384D48"/>
<path d="M16.6092 40.0781C16.1209 40.6351 16.4225 41.5656 17.2264 41.5656C18.1545 41.5656 21.485 40.1601 24.7889 40.1601C28.4874 40.1601 32.1491 41.5656 32.3514 41.5656C33.1545 41.5656 33.4499 40.6351 32.9725 40.0781C28.5405 34.968 21.0334 34.968 16.6092 40.0781Z" fill="#384D48"/>
</svg>
