<svg width="50" height="50" viewBox="0 0 50 50" fill="none" xmlns="http://www.w3.org/2000/svg">
<path d="M49.9672 24.9836C49.9672 38.7844 38.7844 49.9672 24.9836 49.9672C11.1836 49.9672 0 38.7844 0 24.9836C0 11.1836 11.1836 0 24.9836 0C38.7844 0 49.9672 11.1836 49.9672 24.9836Z" fill="#FDA5A4" fill-opacity="0.4"/>
<path d="M42.6945 23.0149C42.6945 28.8258 39.5539 33.532 35.675 33.532C31.7953 33.532 28.6484 28.8289 28.6484 23.0149C28.6484 17.2039 31.7969 12.4984 35.675 12.4984C39.5539 12.4984 42.6945 17.2016 42.6945 23.0149Z" fill="white"/>
<path d="M36.6406 22.182C36.6406 24.382 35.1711 26.1633 33.357 26.1633C31.543 26.1633 30.0703 24.3828 30.0703 22.182C30.0703 19.9813 31.543 18.1977 33.357 18.1977C35.1711 18.1977 36.6406 19.9813 36.6406 22.182" fill="#25333A"/>
<path d="M21.3203 23.0149C21.3203 28.8258 18.1797 33.532 14.3031 33.532C10.4211 33.532 7.27344 28.8289 7.27344 23.0149C7.27344 17.2039 10.4219 12.4984 14.3031 12.4984C18.1781 12.4984 21.3203 17.2016 21.3203 23.0149Z" fill="white"/>
<path d="M16.1749 26.1633C17.9901 26.1633 19.4616 24.3808 19.4616 22.182C19.4616 19.9832 17.9901 18.2008 16.1749 18.2008C14.3597 18.2008 12.8882 19.9832 12.8882 22.182C12.8882 24.3808 14.3597 26.1633 16.1749 26.1633Z" fill="#25333A"/>
<path opacity="0.48" d="M12.1 39.8578C15.5207 39.8578 18.2938 37.5976 18.2938 34.8094C18.2938 32.0212 15.5207 29.7609 12.1 29.7609C8.67929 29.7609 5.90625 32.0212 5.90625 34.8094C5.90625 37.5976 8.67929 39.8578 12.1 39.8578Z" fill="#ED307C"/>
<path opacity="0.48" d="M37.8124 39.8578C41.2331 39.8578 44.0062 37.5976 44.0062 34.8094C44.0062 32.0212 41.2331 29.7609 37.8124 29.7609C34.3917 29.7609 31.6187 32.0212 31.6187 34.8094C31.6187 37.5976 34.3917 39.8578 37.8124 39.8578Z" fill="#ED307C"/>
<path d="M30.5155 40.8906C30.5155 41.0979 30.4747 41.3031 30.3954 41.4945C30.3161 41.686 30.1999 41.86 30.0533 42.0065C29.9068 42.1531 29.7328 42.2693 29.5413 42.3486C29.3499 42.4279 29.1446 42.4687 28.9374 42.4687H21.0366C20.6181 42.4687 20.2167 42.3025 19.9207 42.0065C19.6248 41.7106 19.4585 41.3092 19.4585 40.8906C19.4585 40.4721 19.6248 40.0707 19.9207 39.7747C20.2167 39.4788 20.6181 39.3125 21.0366 39.3125H28.9366C29.8093 39.3125 30.5171 40.0211 30.5171 40.8906" fill="#384D48"/>
<path d="M8.88747 11.5562C10.3937 8.21406 12.9133 6.90547 16.1937 6.49218C17.9523 6.26718 18.2492 6.72031 19.6422 5.99843C20.2148 5.70547 19.9742 5.15 19.3633 5.06328C13.7406 4.24843 8.40232 7.00703 7.73201 11.0711C7.65466 11.5164 8.03279 12.4086 8.88747 11.5562" fill="#384D48"/>
<path d="M8.24362 12.7016C7.87955 12.7016 7.5444 12.5437 7.30221 12.2539C7.15468 12.0711 7.04738 11.8592 6.98734 11.6321C6.9273 11.405 6.91586 11.1678 6.95377 10.9359C7.59283 7.06093 12.078 4.13202 17.3827 4.13202C18.0803 4.13202 18.7835 4.18124 19.4749 4.2828C20.1366 4.37577 20.646 4.8203 20.7405 5.38436C20.8116 5.80389 20.6538 6.36874 20.0014 6.70233C19.1671 7.13436 18.6147 7.22343 17.996 7.22343L17.2866 7.21093C16.9548 7.2105 16.6233 7.23216 16.2944 7.27577C12.8655 7.7078 10.8678 9.08749 9.60846 11.8805L9.44518 12.118C9.05533 12.5039 8.65143 12.7016 8.24362 12.7016ZM11.2014 7.43436C10.3655 7.98983 9.68346 8.65936 9.20768 9.40936C9.7733 8.62811 10.4335 7.97108 11.2014 7.43436Z" fill="#384D48"/>
<path d="M41.4764 11.5562C39.9701 8.21406 37.4506 6.90547 34.1701 6.49218C32.4108 6.26718 32.1147 6.72031 30.7217 5.99843C30.1491 5.70547 30.3897 5.15 31.0006 5.06328C36.6225 4.24843 41.9615 7.00703 42.6319 11.0711C42.7092 11.5164 42.3311 12.4086 41.4764 11.5562" fill="#384D48"/>
<path d="M42.1226 12.7016C41.7156 12.7016 41.3109 12.5039 40.9226 12.118L40.7586 11.8805C39.5 9.08749 37.5015 7.70859 34.0742 7.27577C33.745 7.23221 33.4133 7.21055 33.0812 7.21093L32.3718 7.22343C31.7531 7.22343 31.2007 7.13359 30.3617 6.70234C29.7132 6.36874 29.5562 5.8039 29.6273 5.38437C29.7211 4.81953 30.2304 4.37499 30.8937 4.28281C31.5863 4.18178 32.2852 4.13139 32.9851 4.13202C38.2898 4.13202 42.775 7.06093 43.4156 10.9461C43.452 11.1766 43.4397 11.4121 43.3794 11.6375C43.3191 11.8629 43.2122 12.0732 43.0656 12.2547C42.9514 12.3945 42.8076 12.5071 42.6445 12.5844C42.4814 12.6617 42.3031 12.7017 42.1226 12.7016V12.7016ZM39.4984 7.68124C40.0171 8.08281 40.4828 8.54531 40.9007 9.06952C40.5033 8.54099 40.0309 8.0733 39.4984 7.68124" fill="#384D48"/>
</svg>
