<svg width="50" height="50" viewBox="0 0 50 50" fill="none" xmlns="http://www.w3.org/2000/svg">
<path d="M49.9664 24.9844C49.9664 38.7828 38.7836 49.968 24.9828 49.968C11.182 49.968 0 38.7836 0 24.9844C0 11.1844 11.1828 0 24.9836 0C38.7844 0 49.9664 11.1844 49.9664 24.9844Z" fill="#FDA5A4" fill-opacity="0.4"/>
<path d="M8.40627 19.7727C9.91174 16.4289 12.4313 15.1219 15.7117 14.707C17.4703 14.4836 17.7672 14.9367 19.1602 14.2148C19.7328 13.9219 19.4922 13.3664 18.8813 13.2797C13.2586 12.4648 7.92034 15.2219 7.2508 19.2875C7.17346 19.7313 7.55159 20.6242 8.40627 19.7727" fill="#384D48"/>
<path d="M7.76257 20.9172C7.3985 20.9172 7.06335 20.7586 6.82116 20.4695C6.67371 20.2867 6.56647 20.0748 6.50643 19.8477C6.4464 19.6206 6.43491 19.3834 6.47272 19.1516C7.111 15.2758 11.5969 12.3461 16.9016 12.3461C17.5993 12.3461 18.3024 12.3969 18.9938 12.4969C19.6563 12.5914 20.1649 13.0344 20.2594 13.6C20.3305 14.018 20.1735 14.5828 19.5204 14.918C18.6852 15.35 18.1329 15.4383 17.5149 15.4383L16.8048 15.4273C16.5329 15.4273 16.2157 15.4398 15.8126 15.4906C12.3844 15.9242 10.386 17.3016 9.12663 20.0961L8.96335 20.332C8.57428 20.7195 8.17038 20.9172 7.76257 20.9172V20.9172ZM10.7204 15.65C9.88366 16.2055 9.20241 16.875 8.72663 17.625C9.29147 16.8438 9.95163 16.1852 10.7204 15.65Z" fill="#384D48"/>
<path d="M41 19.7727C39.4937 16.4289 36.975 15.1219 33.6937 14.707C31.9351 14.4836 31.6383 14.9367 30.2453 14.2148C29.6734 13.9219 29.9133 13.3664 30.5242 13.2797C36.1469 12.4648 41.4851 15.2219 42.1554 19.2875C42.2328 19.7313 41.8539 20.6242 41 19.7727" fill="#384D48"/>
<path d="M41.6406 20.9172C41.2336 20.9172 40.8297 20.7195 40.4406 20.332L40.2774 20.0961C39.018 17.3016 37.0196 15.9242 33.593 15.4906C33.2634 15.4483 32.9315 15.4271 32.5992 15.4273L31.8899 15.4383C31.2711 15.4383 30.7188 15.3508 29.8797 14.9172C29.2321 14.5844 29.0742 14.0195 29.1453 13.6008C29.2399 13.0344 29.7485 12.5914 30.4125 12.4977C31.1049 12.3974 31.8036 12.3471 32.5031 12.3469C37.8078 12.3469 42.293 15.2766 42.9336 19.1602C42.97 19.3909 42.9577 19.6267 42.8974 19.8523C42.8371 20.078 42.7302 20.2885 42.5836 20.4703C42.3391 20.7586 42.0055 20.9172 41.6406 20.9172V20.9172ZM39.0156 15.8953C39.5371 16.301 40.0082 16.7676 40.4188 17.2852C40.0213 16.7559 39.5486 16.2877 39.0156 15.8953" fill="#384D48"/>
<path d="M18.3564 37.7656C18.5322 37.7656 21.7415 38.9984 24.9829 38.9984C27.8759 38.9984 30.7962 37.7656 31.6072 37.7656C32.3103 37.7656 32.5728 38.582 32.147 39.0695C28.2712 43.543 21.6954 43.543 17.8157 39.0695C17.3939 38.582 17.6564 37.7656 18.3564 37.7656" fill="#384D48"/>
<path d="M42.043 24.25C41.8602 24.25 38.5071 25.3391 35.1219 25.3391C32.0993 25.3391 29.0477 24.25 28.2024 24.25C27.4665 24.25 27.193 24.9703 27.6368 25.4023C31.686 29.3523 38.5571 29.3523 42.6055 25.4023C43.0477 24.9711 42.7743 24.25 42.0407 24.25" fill="#384D48"/>
<path d="M21.7289 24.25C21.5453 24.25 18.1922 25.3391 14.807 25.3391C11.7843 25.3391 8.73278 24.25 7.88746 24.25C7.15153 24.25 6.87809 24.9703 7.32262 25.4023C11.3718 29.3523 18.2422 29.3523 22.2914 25.4023C22.7328 24.9711 22.4593 24.25 21.7265 24.25" fill="#384D48"/>
</svg>
