<svg width="50" height="50" viewBox="0 0 50 50" fill="none" xmlns="http://www.w3.org/2000/svg">
<g clip-path="url(#clip0)">
<path d="M48.6111 23.6111C48.6111 36.6514 38.0403 47.2222 25 47.2222C11.9611 47.2222 1.38892 36.6514 1.38892 23.6111C1.38892 10.5722 11.9611 0 25 0C38.0403 0 48.6111 10.5722 48.6111 23.6111Z" fill="#FDA5A4" fill-opacity="0.4"/>
<path d="M24.9999 37.6889C29.6319 37.6889 32.7041 38.2278 36.5055 38.9667C37.3736 39.1333 39.0624 38.9667 39.0624 36.4097C39.0624 31.2958 33.1874 24.9042 24.9999 24.9042C16.8124 24.9042 10.9374 31.2958 10.9374 36.4097C10.9374 38.9667 12.6263 39.1347 13.4944 38.9667C17.2944 38.2278 20.368 37.6889 24.9999 37.6889ZM41.5277 23.8736C41.3777 23.7611 38.9958 22.0028 35.4333 20.7986C35.4694 20.6486 35.4944 20.4931 35.4944 20.3319C35.4944 19.8472 35.3124 19.4097 35.0235 19.0681C36.4589 18.6529 37.94 18.4168 39.4333 18.3653C39.7738 18.3538 40.0965 18.2104 40.3332 17.9654C40.5699 17.7203 40.7021 17.3928 40.7017 17.0521C40.7014 16.7114 40.5685 16.3842 40.3313 16.1397C40.0941 15.8951 39.771 15.7524 39.4305 15.7417C39.1416 15.7417 32.2805 15.7917 28.0097 20.0611C27.8268 20.2447 27.7023 20.4782 27.652 20.7324C27.6016 20.9865 27.6276 21.2499 27.7266 21.4893C27.8257 21.7287 27.9934 21.9335 28.2086 22.0777C28.4238 22.222 28.677 22.2993 28.936 22.3C34.9569 22.3 39.9069 25.9361 39.9569 25.9736C40.2363 26.1642 40.5784 26.2395 40.912 26.184C41.2456 26.1285 41.5449 25.9463 41.7475 25.6755C41.95 25.4047 42.0402 25.0661 41.9993 24.7304C41.9584 24.3947 41.7894 24.0878 41.5277 23.8736V23.8736ZM21.9916 20.0597C17.7222 15.7889 10.8611 15.7403 10.5708 15.7403C10.3985 15.7401 10.2279 15.7738 10.0687 15.8396C9.90944 15.9054 9.76472 16.0018 9.64278 16.1235C9.39651 16.3693 9.25795 16.7028 9.25758 17.0507C9.25721 17.3986 9.39506 17.7324 9.64082 17.9787C9.88657 18.225 10.2201 18.3635 10.568 18.3639C10.6027 18.3639 12.6124 18.3847 14.9763 19.0667C14.6745 19.4188 14.5076 19.8668 14.5055 20.3306C14.5055 20.4917 14.5305 20.6472 14.5666 20.7972C11.0041 22.0014 8.62077 23.7597 8.47077 23.8722C8.19248 24.0809 8.00848 24.3916 7.95925 24.7359C7.91002 25.0803 7.9996 25.43 8.20827 25.7083C8.41695 25.9866 8.72763 26.1706 9.07196 26.2199C9.4163 26.2691 9.76609 26.1795 10.0444 25.9708C10.093 25.9347 15.0111 22.2986 21.0624 22.2986C21.593 22.2986 22.0708 21.9792 22.2736 21.4889C22.3741 21.2497 22.4009 20.9859 22.3507 20.7313C22.3005 20.4767 22.1755 20.2429 21.9916 20.0597V20.0597Z" fill="#384D48"/>
<path d="M35.7112 44.8431V34.9806C35.7112 31.3792 30.3098 27.7792 24.9084 27.7792C19.507 27.7792 14.1056 31.3806 14.1056 34.9806V44.8431C7.99032 45.3278 3.88477 46.2111 3.88477 47.2222C3.88477 48.757 13.2973 50 24.9084 50C36.5195 50 45.932 48.757 45.932 47.2222C45.932 46.2111 41.8264 45.3278 35.7112 44.8431V44.8431Z" fill="#A1C58D"/>
<path d="M22.0485 33.9764C22.9958 33.9764 23.7638 33.2084 23.7638 32.2611C23.7638 31.3138 22.9958 30.5458 22.0485 30.5458C21.1012 30.5458 20.3333 31.3138 20.3333 32.2611C20.3333 33.2084 21.1012 33.9764 22.0485 33.9764Z" fill="#5D8F3F"/>
<path d="M28.7473 37.3264C29.6946 37.3264 30.4625 36.5584 30.4625 35.6111C30.4625 34.6638 29.6946 33.8958 28.7473 33.8958C27.7999 33.8958 27.032 34.6638 27.032 35.6111C27.032 36.5584 27.7999 37.3264 28.7473 37.3264Z" fill="#5D8F3F"/>
<path d="M31.1835 42.6556C31.3353 41.7205 30.7003 40.8394 29.7652 40.6877C28.8301 40.5359 27.949 41.1709 27.7973 42.106C27.6455 43.0411 28.2805 43.9221 29.2156 44.0739C30.1507 44.2257 31.0317 43.5907 31.1835 42.6556Z" fill="#5D8F3F"/>
<path d="M23.4016 45.5983C23.6185 44.2619 22.711 43.0027 21.3746 42.7858C20.0382 42.5689 18.7791 43.4764 18.5622 44.8128C18.3453 46.1492 19.2528 47.4084 20.5892 47.6253C21.9255 47.8422 23.1847 46.9347 23.4016 45.5983Z" fill="#5D8F3F"/>
</g>
<defs>
<clipPath id="clip0">
<rect width="50" height="50" fill="white"/>
</clipPath>
</defs>
</svg>
