<svg width="50" height="50" viewBox="0 0 50 50" fill="none" xmlns="http://www.w3.org/2000/svg">
<path d="M49.9664 24.9844C49.9664 38.7812 38.782 49.968 24.9828 49.968C11.1828 49.968 0 38.782 0 24.9844C0 11.1844 11.1828 0 24.9836 0C38.782 0 49.9664 11.1844 49.9664 24.9844Z" fill="#FDA5A4" fill-opacity="0.4"/>
<path d="M16.3008 29.8578C19.1054 29.8578 21.3789 26.8466 21.3789 23.132C21.3789 19.4175 19.1054 16.4062 16.3008 16.4062C13.4962 16.4062 11.2227 19.4175 11.2227 23.132C11.2227 26.8466 13.4962 29.8578 16.3008 29.8578Z" fill="white"/>
<path d="M33.4829 29.8578C36.2875 29.8578 38.561 26.8466 38.561 23.132C38.561 19.4175 36.2875 16.4062 33.4829 16.4062C30.6783 16.4062 28.4048 19.4175 28.4048 23.132C28.4048 26.8466 30.6783 29.8578 33.4829 29.8578Z" fill="white"/>
<path d="M18.6453 26.2343C20.4601 26.2343 21.9312 24.4508 21.9312 22.2507C21.9312 20.0507 20.4601 18.2672 18.6453 18.2672C16.8305 18.2672 15.3594 20.0507 15.3594 22.2507C15.3594 24.4508 16.8305 26.2343 18.6453 26.2343Z" fill="#384D48"/>
<path d="M35.8265 26.2343C37.6412 26.2343 39.1124 24.4508 39.1124 22.2507C39.1124 20.0507 37.6412 18.2672 35.8265 18.2672C34.0117 18.2672 32.5405 20.0507 32.5405 22.2507C32.5405 24.4508 34.0117 26.2343 35.8265 26.2343Z" fill="#384D48"/>
<path d="M33.5911 41.4062C33.5911 41.8207 33.3092 42.2181 32.8073 42.5111C32.3055 42.8041 31.6249 42.9688 30.9152 42.9688C30.9152 42.9688 26.6613 41.3331 23.8281 41.4062C21.2909 41.4717 17.5197 42.9688 17.5197 42.9688C16.81 42.9688 16.1293 42.8041 15.6275 42.5111C15.1257 42.2181 14.8438 41.8207 14.8438 41.4062C14.8438 40.9918 15.1257 40.5944 15.6275 40.3014C16.1293 40.0084 16.81 39.8438 17.5197 39.8438C17.5197 39.8438 21.4937 37.8902 24.2188 37.8906C26.9423 37.8911 30.9139 39.8438 30.9139 39.8438C32.3949 39.8438 33.5938 40.5446 33.5938 41.4062" fill="#384D48"/>
</svg>
