<svg width="50" height="50" viewBox="0 0 50 50" fill="none" xmlns="http://www.w3.org/2000/svg">
<path d="M49.9734 25.0859C49.9734 38.75 38.8992 49.8305 25.2305 49.8305C11.5633 49.8305 0.484375 38.7508 0.484375 25.0859C0.484375 11.4188 11.5633 0.339844 25.2305 0.339844C38.8992 0.339844 49.9734 11.4188 49.9734 25.0859Z" fill="#FDA5A4" fill-opacity="0.4"/>
<path d="M20.4219 18.5492C17.9031 16.6664 14.9836 11.6539 11.6594 11.8945C9.88049 12.0133 9.2719 13.0234 8.19612 12.3398C6.83049 11.4688 7.76955 10.4148 8.34377 10.1352C13.6172 7.56953 20.2946 12.4727 22.086 18.0578C22.2844 18.6695 20.9805 18.9656 20.4219 18.5492" fill="#384D48"/>
<path d="M30.6015 18.5445C33.1202 16.6602 36.0405 11.6477 39.3663 11.8875C41.146 12.0109 41.7522 13.0211 42.828 12.3344C44.1944 11.4617 43.2562 10.4125 42.6827 10.1328C37.4054 7.56563 30.7296 12.4703 28.9405 18.0555C28.7421 18.6633 30.046 18.9609 30.6015 18.5445" fill="#384D48"/>
<path d="M35.4219 37.625C33.7024 35.9781 30.9337 35.0687 27.6219 35.0687C25.793 35.0687 23.8719 35.3461 22.0688 35.8656C21.2891 36.0914 20.818 36.7438 20.9204 37.4547C21.036 38.3047 21.9345 38.8398 22.8735 38.5719C24.3288 38.1497 25.8356 37.932 27.3509 37.925C29.8649 37.925 31.9368 38.5813 33.1845 39.7813C33.4501 40.0344 33.7977 40.1688 34.1641 40.1688C34.8251 40.1688 35.4837 39.7188 35.7345 39.0938C35.8383 38.8463 35.864 38.573 35.8082 38.3104C35.7523 38.0479 35.6176 37.8088 35.4219 37.625" fill="#384D48"/>
<path d="M42.6796 19.6172C42.4983 19.6172 39.1827 20.6938 35.8358 20.6938C32.8476 20.6938 29.8296 19.6172 28.9937 19.6172C28.2655 19.6172 27.996 20.3297 28.4351 20.7563C32.4382 24.6617 39.2312 24.6617 43.2366 20.7563C43.6733 20.3289 43.4038 19.6172 42.6796 19.6172Z" fill="#384D48"/>
<path d="M21.3344 19.6172C21.1531 19.6172 17.8375 20.6938 14.4906 20.6938C11.5023 20.6938 8.48438 19.6172 7.64844 19.6172C6.92032 19.6172 6.65078 20.3297 7.08985 20.7563C11.093 24.6617 17.8859 24.6617 21.8922 20.7563C22.3289 20.3289 22.0586 19.6172 21.3344 19.6172" fill="#384D48"/>
<path d="M22.9788 24.0328L9.8772 37.5H16.7936L22.9788 24.0328Z" fill="#E5E5E5"/>
<path fill-rule="evenodd" clip-rule="evenodd" d="M6.35451 41.4375C7.00841 42.3133 8.61388 42.7602 10.3209 42.6719C10.4584 42.707 10.6061 42.7359 10.7615 42.7602C12.1756 42.9828 13.8944 42.757 15.1272 42.15C15.1733 42.1273 15.2217 42.107 15.2694 42.0828C16.0123 41.8125 16.5889 41.4437 16.9889 41.0281C18.749 40.3203 19.8756 38.9203 18.9186 37.925C18.4803 37.4726 17.9574 37.1107 17.3795 36.8602C17.9623 36.2867 18.2904 35.6664 18.2522 35.0344C18.4733 34.8602 18.6623 34.6727 18.8115 34.4727C19.1592 34.1203 19.3654 33.7281 19.4311 33.3492C19.5444 32.6875 19.3381 32.0984 18.6115 31.6148C17.9209 31.157 16.8662 30.8898 15.7131 30.8852C14.0733 30.8695 12.3248 31.4375 11.3795 32.2492C8.93967 32.5914 7.33654 34.182 7.74123 35.468C7.67717 35.4836 7.61935 35.5 7.55998 35.5141C7.26232 35.5961 6.96154 35.668 6.66154 35.7398C6.56545 35.7609 6.49357 35.7812 6.43029 35.7961C4.79748 36.1289 3.41545 36.7578 2.89279 37.6664C1.77404 38.4094 1.42795 39.4469 2.0217 40.2367C2.75685 41.2273 4.49591 41.5914 6.3467 41.4195C6.34826 41.4234 6.35295 41.4297 6.34748 41.4375" fill="#F3F2F2"/>
<path fill-rule="evenodd" clip-rule="evenodd" d="M18.8123 34.4766C19.1599 34.1242 19.3662 33.732 19.4318 33.3531C19.5451 32.6914 19.3388 32.1023 18.6123 31.6188C18.1912 31.3414 17.6287 31.143 17.0029 31.0203C17.6318 32.3664 16.7896 33.7359 15.7748 35.0313C15.3091 35.6266 14.4568 36.1586 14.6873 36.8234C14.8521 37.3055 15.1138 37.8125 15.0716 38.3063C14.9466 39.8422 13.3138 41.0461 10.3154 41.5328C9.22788 41.7117 8.06382 41.818 6.87866 41.8945C7.67554 42.4563 8.95366 42.7461 10.3216 42.6742C10.4591 42.7094 10.6068 42.7383 10.7623 42.7625C12.1763 42.9852 13.8951 42.7594 15.1279 42.1524C15.174 42.1297 15.2224 42.1094 15.2701 42.0852C16.013 41.8149 16.5896 41.4461 16.9896 41.0305C18.7498 40.3227 19.8763 38.9227 18.9193 37.9274C18.4811 37.4749 17.9581 37.1131 17.3802 36.8625C17.963 36.2891 18.2912 35.6688 18.2529 35.0367C18.4732 34.8641 18.6623 34.6766 18.8123 34.4766" fill="#CDCCCB"/>
<path d="M28.6538 24.0328L41.7577 37.5H34.8382L28.6538 24.0328Z" fill="#E5E5E5"/>
<path fill-rule="evenodd" clip-rule="evenodd" d="M44.5702 41.4375C43.9155 42.3133 42.3124 42.7602 40.6053 42.6719C40.4599 42.7081 40.3129 42.7376 40.1647 42.7602C38.7491 42.9828 37.0241 42.757 35.7975 42.15C35.7514 42.1273 35.703 42.107 35.6584 42.0828C34.9139 41.8125 34.3374 41.4437 33.9374 41.0281C32.1772 40.3203 31.0483 38.9203 32.0061 37.925C32.4437 37.4726 32.9662 37.1108 33.5436 36.8602C32.9624 36.2867 32.6334 35.6664 32.6717 35.0344C32.4634 34.8721 32.2772 34.6832 32.1178 34.4727C31.7639 34.1203 31.5608 33.7281 31.4936 33.3492C31.3795 32.6875 31.5881 32.0984 32.3131 31.6148C33.0053 31.157 34.0561 30.8898 35.21 30.8852C36.8514 30.8695 38.5999 31.4375 39.5444 32.2492C41.9866 32.5914 43.5913 34.182 43.185 35.468C43.2475 35.4836 43.3053 35.5 43.3663 35.5141C43.6624 35.5961 43.9616 35.668 44.2647 35.7398C44.3592 35.7609 44.4311 35.7812 44.492 35.7961C46.1264 36.1289 47.5077 36.7578 48.0327 37.6664C49.1498 38.4094 49.4975 39.4469 48.9053 40.2367C48.167 41.2273 46.428 41.5914 44.5788 41.4195C44.5733 41.4234 44.5733 41.4297 44.5702 41.4375" fill="#F3F2F2"/>
<path fill-rule="evenodd" clip-rule="evenodd" d="M32.1249 34.4766C31.771 34.1242 31.5679 33.732 31.5007 33.3531C31.3866 32.6914 31.5952 32.1023 32.3202 31.6188C32.7397 31.3414 33.3038 31.143 33.9312 31.0203C33.3007 32.3664 34.1421 33.7359 35.1577 35.0313C35.6249 35.6266 36.4765 36.1586 36.246 36.8234C36.0827 37.3055 35.8187 37.8125 35.8632 38.3063C35.9835 39.8422 37.6187 41.0461 40.6163 41.5328C41.7069 41.7117 42.8718 41.818 44.0577 41.8945C43.2585 42.4563 41.9819 42.7461 40.6132 42.6742C40.4678 42.7105 40.3207 42.7399 40.1726 42.7625C38.7569 42.9852 37.0319 42.7594 35.8054 42.1524C35.7593 42.1297 35.7108 42.1094 35.6663 42.0852C34.9218 41.8149 34.3452 41.4461 33.9452 41.0305C32.1851 40.3227 31.0562 38.9227 32.014 37.9274C32.4516 37.4749 32.974 37.1131 33.5515 36.8625C32.9702 36.2891 32.6413 35.6688 32.6796 35.0367C32.4705 34.8756 32.284 34.6872 32.1249 34.4766" fill="#CDCCCB"/>
</svg>
