<svg width="50" height="50" viewBox="0 0 50 50" fill="none" xmlns="http://www.w3.org/2000/svg">
<path d="M25 49.9421C38.8071 49.9421 50 38.7628 50 24.9725C50 11.1822 38.8071 0.00299835 25 0.00299835C11.1929 0.00299835 0 11.1822 0 24.9725C0 38.7628 11.1929 49.9421 25 49.9421Z" fill="#FDA5A4" fill-opacity="0.4"/>
<path d="M40.703 30.7422C40.703 39.3328 33.7249 46.3055 25.1194 46.3055C16.5179 46.3055 9.54053 39.3328 9.54053 30.7422" fill="#384D48"/>
<path d="M22.9632 19.6484C21.8921 16.7281 19.4624 13.932 16.1077 13.9984C12.9827 14.0578 11.0928 17.3641 10.0725 19.8672C9.43659 21.4297 11.9694 22.1023 12.5991 20.5625C13.2538 18.9555 14.2186 17.1805 15.9889 16.6406C18.0155 16.0203 19.8702 18.8 20.4358 20.343C21.0116 21.9133 23.5436 21.2367 22.9632 19.6469" fill="#384D48"/>
<path d="M27.5155 19.625C28.5866 16.7039 31.0147 13.9094 34.3702 13.9734C37.503 14.0344 39.3835 17.3398 40.4038 19.8422C41.042 21.4047 38.5069 22.0789 37.8788 20.5391C37.2241 18.9305 36.2577 17.157 34.4897 16.6172C32.4608 15.9984 30.6061 18.7789 30.042 20.3211C29.4655 21.8914 26.9335 21.2101 27.5155 19.6242" fill="#384D48"/>
<path d="M38.0374 32.3047C38.0374 35.7359 32.1366 38.5219 24.8632 38.5219C17.5952 38.5219 11.6929 35.7359 11.6929 32.3047" fill="white"/>
</svg>
