<svg width="50" height="50" viewBox="0 0 50 50" fill="none" xmlns="http://www.w3.org/2000/svg">
<path d="M49.9664 24.9844C49.9664 38.7812 38.782 49.968 24.9828 49.968C11.1828 49.968 0 38.782 0 24.9844C0 11.1844 11.1828 0 24.9836 0C38.782 0 49.9664 11.1844 49.9664 24.9844Z" fill="#FDA5A4" fill-opacity="0.4"/>
<path d="M16.3008 29.8578C19.1054 29.8578 21.3789 26.452 21.3789 22.2508C21.3789 18.0495 19.1054 14.6438 16.3008 14.6438C13.4962 14.6438 11.2227 18.0495 11.2227 22.2508C11.2227 26.452 13.4962 29.8578 16.3008 29.8578Z" fill="white"/>
<path d="M33.4829 29.8578C36.2875 29.8578 38.561 26.452 38.561 22.2508C38.561 18.0495 36.2875 14.6438 33.4829 14.6438C30.6783 14.6438 28.4048 18.0495 28.4048 22.2508C28.4048 26.452 30.6783 29.8578 33.4829 29.8578Z" fill="white"/>
<path d="M14.7391 27.0156C16.5538 27.0156 18.025 25.2321 18.025 23.032C18.025 20.8319 16.5538 19.0484 14.7391 19.0484C12.9243 19.0484 11.4531 20.8319 11.4531 23.032C11.4531 25.2321 12.9243 27.0156 14.7391 27.0156Z" fill="#25333A"/>
<path d="M31.9202 27.0156C33.735 27.0156 35.2062 25.2321 35.2062 23.032C35.2062 20.8319 33.735 19.0484 31.9202 19.0484C30.1054 19.0484 28.6343 20.8319 28.6343 23.032C28.6343 25.2321 30.1054 27.0156 31.9202 27.0156Z" fill="#25333A"/>
<path d="M30.5157 41.3094C30.5157 41.7279 30.3495 42.1293 30.0535 42.4253C29.7575 42.7212 29.3561 42.8875 28.9376 42.8875H21.0376C20.6191 42.8875 20.2177 42.7212 19.9217 42.4253C19.6257 42.1293 19.4595 41.7279 19.4595 41.3094C19.4595 40.8908 19.6257 40.4894 19.9217 40.1935C20.2177 39.8975 20.6191 39.7312 21.0376 39.7312H28.9368C29.8103 39.7312 30.5173 40.4391 30.5173 41.3094" fill="#384D48"/>
</svg>
