<svg width="50" height="50" viewBox="0 0 50 50" fill="none" xmlns="http://www.w3.org/2000/svg">
<path d="M49.7626 25.0156C49.7626 38.7063 38.6665 49.8039 24.9743 49.8039C11.2821 49.8039 0.186035 38.707 0.186035 25.0156C0.186035 11.3242 11.2821 0.226566 24.9751 0.226566C38.6665 0.226566 49.7626 11.3242 49.7626 25.0156Z" fill="#FDA5A4" fill-opacity="0.4"/>
<path d="M21.0102 11.2352L20.061 11.5C20.0133 11.5125 19.9844 11.5414 19.943 11.5617C19.8944 11.578 19.8483 11.6011 19.8063 11.6305C19.7388 11.6832 19.6818 11.7481 19.6383 11.8219C19.6274 11.8359 19.6141 11.8398 19.6047 11.857C17.9391 14.7289 15.0797 16.0727 11.8094 15.3984C10.0579 15.0406 9.98755 14.3078 8.34614 14.7641C7.67583 14.9508 7.64224 15.8008 8.17505 16.1508C13.0743 19.3992 19.3594 17.6484 21.8735 12.3375C22.1485 11.7586 21.6797 11.0484 21.0102 11.2352Z" fill="#384D48"/>
<path d="M28.3359 11.2352C28.6547 11.3227 28.9703 11.4117 29.2867 11.5C29.3344 11.5125 29.3656 11.5414 29.4047 11.5617C29.4534 11.5783 29.4997 11.6014 29.5422 11.6305C29.6099 11.6831 29.6672 11.7481 29.7109 11.8219C29.7203 11.8359 29.7336 11.8398 29.7445 11.857C31.4102 14.7289 34.2703 16.0727 37.5391 15.3984C39.2914 15.0406 39.3617 14.3078 41.0031 14.7641C41.6734 14.9508 41.707 15.8008 41.1719 16.1508C36.2758 19.3992 29.9906 17.6484 27.4766 12.3375C27.1992 11.7586 27.6649 11.0484 28.3359 11.2352Z" fill="#384D48"/>
<path d="M21.489 25.7406C21.489 29.9109 19.2359 33.2859 16.4523 33.2859C13.6687 33.2859 11.4109 29.9109 11.4109 25.7406C11.4109 21.5742 13.6687 18.1984 16.4523 18.1984C19.2359 18.1984 21.489 21.5742 21.489 25.7406Z" fill="white"/>
<path d="M38.5389 25.7406C38.5389 29.9109 36.285 33.2859 33.5022 33.2859C30.7194 33.2859 28.4631 29.9109 28.4631 25.7406C28.4631 21.5742 30.7194 18.1984 33.5022 18.1984C36.285 18.1984 38.5389 21.5742 38.5389 25.7406Z" fill="white"/>
<path d="M19.711 25.7406C19.711 27.9266 18.25 29.6937 16.4516 29.6937C14.6493 29.6937 13.1907 27.9266 13.1907 25.7406C13.1907 23.5578 14.6493 21.7906 16.4516 21.7906C18.25 21.7906 19.711 23.5578 19.711 25.7406Z" fill="#25333A"/>
<path d="M36.758 25.7406C36.758 27.9266 35.2994 29.6937 33.4986 29.6937C31.697 29.6937 30.2361 27.9266 30.2361 25.7406C30.2361 23.5578 31.697 21.7906 33.4986 21.7906C35.2994 21.7906 36.758 23.5578 36.758 25.7406Z" fill="#25333A"/>
<path d="M0.0500488 36.25C0.0500488 39.8984 2.4813 42.8524 5.48364 42.8524C8.48442 42.8524 10.9149 39.8984 10.9149 36.25C10.9149 32.6047 8.48442 23.6094 5.48364 23.6094C2.4813 23.6094 0.0500488 32.6016 0.0500488 36.25Z" fill="#58C5E8"/>
<path d="M16.797 42.7273C16.3071 43.2828 16.6103 44.2133 17.4126 44.2133C18.3407 44.2133 21.6712 42.8078 24.9751 42.8078C28.6735 42.8078 32.3353 44.2133 32.5376 44.2133C33.3431 44.2133 33.6368 43.2828 33.1595 42.7273C28.7282 37.6156 21.2212 37.6156 16.797 42.7273Z" fill="#384D48"/>
</svg>
