<svg width="50" height="50" viewBox="0 0 50 50" fill="none" xmlns="http://www.w3.org/2000/svg">
<path d="M49.9664 24.9836C49.9664 38.7805 38.7805 49.9672 24.9805 49.9672C11.1805 49.9672 0 38.7812 0 24.9836C0 11.1836 11.1805 0 24.9805 0C38.7805 0 49.9664 11.1836 49.9664 24.9836Z" fill="#FDA5A4" fill-opacity="0.4"/>
<path d="M21.3789 18.1016C21.3789 22.3047 19.1078 25.7055 16.3023 25.7055C13.4945 25.7055 11.2234 22.3047 11.2234 18.1016C11.2234 13.9023 13.4945 10.4984 16.3023 10.4984C19.1078 10.4984 21.3789 13.9023 21.3789 18.1016" fill="white"/>
<path d="M38.5625 18.1016C38.5625 22.3047 36.2914 25.7055 33.4859 25.7055C30.6812 25.7055 28.407 22.3047 28.407 18.1016C28.407 13.9023 30.6812 10.4984 33.4859 10.4984C36.2914 10.4984 38.5625 13.9023 38.5625 18.1016" fill="white"/>
<path d="M16.3008 22.0859C18.1151 22.0859 19.5859 20.3021 19.5859 18.1016C19.5859 15.9011 18.1151 14.1172 16.3008 14.1172C14.4864 14.1172 13.0156 15.9011 13.0156 18.1016C13.0156 20.3021 14.4864 22.0859 16.3008 22.0859Z" fill="#384D48"/>
<path d="M33.482 22.0859C35.2972 22.0859 36.7687 20.3021 36.7687 18.1016C36.7687 15.9011 35.2972 14.1172 33.482 14.1172C31.6668 14.1172 30.1953 15.9011 30.1953 18.1016C30.1953 20.3021 31.6668 22.0859 33.482 22.0859Z" fill="#384D48"/>
<path d="M37.6562 37.1391C37.6562 42.0273 32.5343 40.3547 25.5499 40.3547C18.5655 40.3547 12.3608 42.0273 12.3608 37.1391C12.3608 32.2508 18.0233 28.2891 25.0085 28.2891C31.9952 28.2891 37.6562 32.2508 37.6562 37.1391Z" fill="#384D48"/>
</svg>
