<svg width="64" height="64" viewBox="0 0 64 64" fill="none" xmlns="http://www.w3.org/2000/svg">
<path d="M63.958 31.979C63.958 49.644 49.644 63.958 31.979 63.958C14.315 63.958 0 49.644 0 31.979C0 14.315 14.315 0 31.979 0C49.644 0 63.958 14.315 63.958 31.979Z" fill="#FBBF67"/>
<path d="M41.4 52.06C41.175 52.06 37.067 50.484 32.92 50.484C29.215 50.484 25.479 52.06 24.44 52.06C23.54 52.06 23.204 51.017 23.749 50.393C28.71 44.665 37.128 44.665 42.093 50.393C42.632 51.017 42.296 52.06 41.4 52.06Z" fill="#633D19"/>
<path d="M54.832 40.1C53.832 43.091 50.913 38.385 47.345 37.193C43.778 36 38.616 38.005 39.616 35.01C40.615 32.018 45.738 30.134 49.307 31.326C52.874 32.519 55.833 37.105 54.832 40.1Z" fill="#633D19"/>
<path d="M10.04 40.1C11.04 43.091 13.958 38.385 17.527 37.193C21.094 36 26.256 38.005 25.255 35.01C24.256 32.018 19.133 30.134 15.564 31.326C11.997 32.519 9.03897 37.105 10.04 40.1Z" fill="#633D19"/>
</svg>
