<svg width="234" height="230" viewBox="0 0 234 230" fill="none" xmlns="http://www.w3.org/2000/svg">
<path d="M190.125 28.75H164.875C162.666 28.75 160.875 26.9591 160.875 24.75V18.375C160.875 16.1659 159.084 14.375 156.875 14.375H150.25C148.041 14.375 146.25 16.1659 146.25 18.375V24.75C146.25 26.9591 144.459 28.75 142.25 28.75H91.75C89.5409 28.75 87.75 26.9591 87.75 24.75V18.375C87.75 16.1659 85.9591 14.375 83.75 14.375H77.125C74.9159 14.375 73.125 16.1659 73.125 18.375V24.75C73.125 26.9591 71.3341 28.75 69.125 28.75H43.875C35.8313 28.75 29.25 35.2188 29.25 43.125V186.875C29.25 194.781 35.8313 201.25 43.875 201.25H190.125C198.169 201.25 204.75 194.781 204.75 186.875V43.125C204.75 35.2188 198.169 28.75 190.125 28.75ZM190.125 182.875C190.125 185.084 188.334 186.875 186.125 186.875H47.875C45.6659 186.875 43.875 185.084 43.875 182.875V90.25C43.875 88.0409 45.6659 86.25 47.875 86.25H186.125C188.334 86.25 190.125 88.0409 190.125 90.25V182.875ZM190.125 67.875C190.125 70.0841 188.334 71.875 186.125 71.875H47.875C45.6659 71.875 43.875 70.0841 43.875 67.875V47.125C43.875 44.9159 45.6659 43.125 47.875 43.125H69.125C71.3341 43.125 73.125 44.9159 73.125 47.125V53.5C73.125 55.7091 74.9159 57.5 77.125 57.5H83.75C85.9591 57.5 87.75 55.7091 87.75 53.5V47.125C87.75 44.9159 89.5409 43.125 91.75 43.125H142.25C144.459 43.125 146.25 44.9159 146.25 47.125V53.5C146.25 55.7091 148.041 57.5 150.25 57.5H156.875C159.084 57.5 160.875 55.7091 160.875 53.5V47.125C160.875 44.9159 162.666 43.125 164.875 43.125H186.125C188.334 43.125 190.125 44.9159 190.125 47.125V67.875Z" fill="#FDA5A4"/>
</svg>
