<svg width="100" height="100" viewBox="0 0 234 230" fill="none" xmlns="http://www.w3.org/2000/svg">
<path fill-rule="evenodd" clip-rule="evenodd" d="M101.156 116.578C103.752 116.578 106.242 115.547 108.078 113.711C109.914 111.875 110.945 109.385 110.945 106.789C110.945 104.193 109.914 101.703 108.078 99.8672C106.242 98.0313 103.752 97 101.156 97C98.56 97 96.0701 98.0313 94.2343 99.8672C92.3985 101.703 91.3672 104.193 91.3672 106.789C91.3672 109.385 92.3985 111.875 94.2343 113.711C96.0701 115.547 98.56 116.578 101.156 116.578ZM130.523 116.578C133.12 116.578 135.61 115.547 137.445 113.711C139.281 111.875 140.312 109.385 140.312 106.789C140.312 104.193 139.281 101.703 137.445 99.8672C135.61 98.0313 133.12 97 130.523 97C127.927 97 125.437 98.0313 123.602 99.8672C121.766 101.703 120.734 104.193 120.734 106.789C120.734 109.385 121.766 111.875 123.602 113.711C125.437 115.547 127.927 116.578 130.523 116.578ZM159.891 116.578C162.487 116.578 164.977 115.547 166.813 113.711C168.648 111.875 169.68 109.385 169.68 106.789C169.68 104.193 168.648 101.703 166.813 99.8672C164.977 98.0313 162.487 97 159.891 97C157.294 97 154.805 98.0313 152.969 99.8672C151.133 101.703 150.102 104.193 150.102 106.789C150.102 109.385 151.133 111.875 152.969 113.711C154.805 115.547 157.294 116.578 159.891 116.578ZM71.7891 145.945C74.3853 145.945 76.8752 144.914 78.711 143.078C80.5468 141.242 81.5781 138.752 81.5781 136.156C81.5781 133.56 80.5468 131.07 78.711 129.234C76.8752 127.399 74.3853 126.367 71.7891 126.367C69.1928 126.367 66.703 127.399 64.8671 129.234C63.0313 131.07 62 133.56 62 136.156C62 138.752 63.0313 141.242 64.8671 143.078C66.703 144.914 69.1928 145.945 71.7891 145.945ZM101.156 145.945C103.752 145.945 106.242 144.914 108.078 143.078C109.914 141.242 110.945 138.752 110.945 136.156C110.945 133.56 109.914 131.07 108.078 129.234C106.242 127.399 103.752 126.367 101.156 126.367C98.56 126.367 96.0701 127.399 94.2343 129.234C92.3985 131.07 91.3672 133.56 91.3672 136.156C91.3672 138.752 92.3985 141.242 94.2343 143.078C96.0701 144.914 98.56 145.945 101.156 145.945ZM130.523 145.945C133.12 145.945 135.61 144.914 137.445 143.078C139.281 141.242 140.312 138.752 140.312 136.156C140.312 133.56 139.281 131.07 137.445 129.234C135.61 127.399 133.12 126.367 130.523 126.367C127.927 126.367 125.437 127.399 123.602 129.234C121.766 131.07 120.734 133.56 120.734 136.156C120.734 138.752 121.766 141.242 123.602 143.078C125.437 144.914 127.927 145.945 130.523 145.945ZM159.891 145.945C162.487 145.945 164.977 144.914 166.813 143.078C168.648 141.242 169.68 138.752 169.68 136.156C169.68 133.56 168.648 131.07 166.813 129.234C164.977 127.399 162.487 126.367 159.891 126.367C157.294 126.367 154.805 127.399 152.969 129.234C151.133 131.07 150.102 133.56 150.102 136.156C150.102 138.752 151.133 141.242 152.969 143.078C154.805 144.914 157.294 145.945 159.891 145.945ZM71.7891 175.312C74.3853 175.312 76.8752 174.281 78.711 172.445C80.5468 170.61 81.5781 168.12 81.5781 165.523C81.5781 162.927 80.5468 160.437 78.711 158.602C76.8752 156.766 74.3853 155.734 71.7891 155.734C69.1928 155.734 66.703 156.766 64.8671 158.602C63.0313 160.437 62 162.927 62 165.523C62 168.12 63.0313 170.61 64.8671 172.445C66.703 174.281 69.1928 175.312 71.7891 175.312ZM101.156 175.312C103.752 175.312 106.242 174.281 108.078 172.445C109.914 170.61 110.945 168.12 110.945 165.523C110.945 162.927 109.914 160.437 108.078 158.602C106.242 156.766 103.752 155.734 101.156 155.734C98.56 155.734 96.0701 156.766 94.2343 158.602C92.3985 160.437 91.3672 162.927 91.3672 165.523C91.3672 168.12 92.3985 170.61 94.2343 172.445C96.0701 174.281 98.56 175.312 101.156 175.312ZM130.523 175.312C133.12 175.312 135.61 174.281 137.445 172.445C139.281 170.61 140.312 168.12 140.312 165.523C140.312 162.927 139.281 160.437 137.445 158.602C135.61 156.766 133.12 155.734 130.523 155.734C127.927 155.734 125.437 156.766 123.602 158.602C121.766 160.437 120.734 162.927 120.734 165.523C120.734 168.12 121.766 170.61 123.602 172.445C125.437 174.281 127.927 175.312 130.523 175.312Z" fill="#FDA5A4" fill-opacity="0.4"/>
<ellipse cx="159.987" cy="136.312" rx="10" ry="9" fill="#FDA5A4"/>
<path d="M190.125 28.75H164.875C162.666 28.75 160.875 26.9591 160.875 24.75V18.375C160.875 16.1659 159.084 14.375 156.875 14.375H150.25C148.041 14.375 146.25 16.1659 146.25 18.375V24.75C146.25 26.9591 144.459 28.75 142.25 28.75H91.75C89.5409 28.75 87.75 26.9591 87.75 24.75V18.375C87.75 16.1659 85.9591 14.375 83.75 14.375H77.125C74.9159 14.375 73.125 16.1659 73.125 18.375V24.75C73.125 26.9591 71.3341 28.75 69.125 28.75H43.875C35.8313 28.75 29.25 35.2188 29.25 43.125V186.875C29.25 194.781 35.8313 201.25 43.875 201.25H190.125C198.169 201.25 204.75 194.781 204.75 186.875V43.125C204.75 35.2188 198.169 28.75 190.125 28.75ZM190.125 182.875C190.125 185.084 188.334 186.875 186.125 186.875H47.875C45.6659 186.875 43.875 185.084 43.875 182.875V90.25C43.875 88.0409 45.6659 86.25 47.875 86.25H186.125C188.334 86.25 190.125 88.0409 190.125 90.25V182.875ZM190.125 67.875C190.125 70.0841 188.334 71.875 186.125 71.875H47.875C45.6659 71.875 43.875 70.0841 43.875 67.875V47.125C43.875 44.9159 45.6659 43.125 47.875 43.125H69.125C71.3341 43.125 73.125 44.9159 73.125 47.125V53.5C73.125 55.7091 74.9159 57.5 77.125 57.5H83.75C85.9591 57.5 87.75 55.7091 87.75 53.5V47.125C87.75 44.9159 89.5409 43.125 91.75 43.125H142.25C144.459 43.125 146.25 44.9159 146.25 47.125V53.5C146.25 55.7091 148.041 57.5 150.25 57.5H156.875C159.084 57.5 160.875 55.7091 160.875 53.5V47.125C160.875 44.9159 162.666 43.125 164.875 43.125H186.125C188.334 43.125 190.125 44.9159 190.125 47.125V67.875Z" fill="#FDA5A4"/>
</svg>
